<?xml version="1.0" standalone="no"?>
<!DOCTYPE svg PUBLIC "-//W3C//DTD SVG 20010904//EN"
 "http://www.w3.org/TR/2001/REC-SVG-20010904/DTD/svg10.dtd">
<svg version="1.0" xmlns="http://www.w3.org/2000/svg"
 width="126.000000pt" height="181.000000pt" viewBox="0 0 126.000000 181.000000"
 preserveAspectRatio="xMidYMid meet">

<g transform="translate(0.000000,181.000000) scale(0.100000,-0.100000)"
fill="#000000" stroke="none">
<path d="M194 1641 c-36 -22 -64 -58 -64 -81 0 -8 108 -123 240 -255 l240
-239 -32 -33 -31 -33 -48 45 c-27 25 -56 45 -65 45 -22 0 -355 -330 -380 -375
-11 -22 -15 -41 -10 -60 8 -31 76 -105 97 -105 7 0 122 109 256 242 l243 243
32 -33 32 -32 -40 -42 c-23 -24 -44 -52 -48 -62 -5 -15 29 -55 166 -193 95
-96 185 -181 200 -189 48 -25 86 -18 129 25 22 21 39 47 39 57 0 10 -103 121
-240 259 l-240 241 28 27 c15 15 33 27 38 27 5 0 28 -18 49 -40 21 -22 48 -40
60 -40 21 0 353 325 374 367 21 42 13 81 -25 123 -21 23 -45 40 -58 40 -14 0
-97 -76 -258 -237 l-238 -238 -32 33 -32 32 42 43 c26 27 42 52 42 67 0 19
-42 67 -172 197 -201 200 -227 215 -294 174z"/>
<path d="M487 811 l-68 -70 3 -68 3 -68 173 -3 c94 -1 172 1 172 5 0 4 -45 53
-101 109 -72 72 -103 111 -108 133 l-6 33 -68 -71z"/>
<path d="M327 441 c-79 -78 -108 -113 -104 -125 6 -14 47 -16 417 -16 370 0
411 2 417 16 4 12 -25 47 -104 125 l-110 109 -203 0 -203 0 -110 -109z"/>
<path d="M270 180 l0 -70 370 0 370 0 0 70 0 70 -370 0 -370 0 0 -70z"/>
</g>
</svg>
